<svg width="1512" height="541" viewBox="0 0 1512 541" fill="none" xmlns="http://www.w3.org/2000/svg">
<g clip-path="url(#clip0_118_430)">
<path d="M714.907 456.565C691.031 456.565 668.647 454.7 647.756 450.969C627.238 447.611 609.519 442.575 594.596 435.86V359.197C611.01 366.285 629.104 372.067 648.876 376.544C669.021 381.021 688.047 383.259 705.953 383.259C728.337 383.259 744.938 381.207 755.757 377.104C766.948 373 772.544 364.047 772.544 350.244C772.544 340.917 769.746 333.456 764.15 327.86C758.928 322.264 750.161 317.414 737.85 313.311C725.912 308.834 709.497 303.612 688.606 297.642C663.984 290.182 644.399 281.974 629.85 273.021C615.301 263.694 604.854 252.502 598.513 239.446C592.171 226.389 589 210.347 589 191.321C589 157 601.311 130.7 625.933 112.42C650.554 94.1398 686.927 85 735.052 85C755.943 85 776.275 86.6788 796.047 90.0363C815.818 93.0207 831.86 96.5648 844.171 100.668V177.891C828.129 171.55 811.901 166.886 795.487 163.902C779.445 160.918 763.777 159.425 748.482 159.425C728.337 159.425 711.923 161.29 699.238 165.021C686.927 168.752 680.772 177.332 680.772 190.762C680.772 198.596 683.01 204.937 687.487 209.788C691.964 214.264 699.612 218.367 710.43 222.098C721.622 225.829 736.731 230.306 755.757 235.529C785.228 243.363 807.798 252.876 823.466 264.067C839.135 274.886 849.953 287.57 855.922 302.119C861.892 316.295 864.876 332.337 864.876 350.244C864.876 381.954 852.565 407.695 827.943 427.466C803.321 446.866 765.643 456.565 714.907 456.565Z" fill="white"/>
<path d="M1002.96 450.969V318.347L873.698 90.5957H967.708L1048.29 240.005L1128.87 90.5957H1222.88L1093.61 318.347V450.969H1002.96Z" fill="white"/>
<path d="M1402.83 456.565C1339.79 456.565 1291.67 440.523 1258.47 408.44C1225.64 375.984 1209.22 331.032 1209.22 273.58C1209.22 213.519 1225.26 167.073 1257.35 134.244C1289.8 101.414 1338.11 85 1402.27 85C1424.29 85 1443.88 86.6788 1461.03 90.0363C1478.57 93.3938 1495.36 97.8705 1511.39 103.466V182.368C1478.94 168.938 1444.8 162.223 1408.99 162.223C1371.69 162.223 1344.27 171.176 1326.74 189.083C1309.57 206.99 1300.99 235.155 1300.99 273.58C1300.99 310.139 1310.13 337 1328.41 354.161C1346.69 371.322 1373.93 379.902 1410.11 379.902C1427.65 379.902 1445 378.409 1462.15 375.425C1479.31 372.067 1495.92 367.031 1511.95 360.316V439.777C1496.28 445 1479.69 449.104 1462.15 452.088C1444.62 455.072 1424.85 456.565 1402.83 456.565Z" fill="white"/>
<path fill-rule="evenodd" clip-rule="evenodd" d="M56 0H477C507.928 0 533 25.0721 533 56V485C533 515.928 507.928 541 477 541H56C25.0721 541 0 515.928 0 485V56C0 25.0721 25.0721 0 56 0ZM188.74 93L53 448H131.117L157.511 379.646H258V448H479.882V379.646H335.87V305.228H459.466V235.772H335.87V161.354H479.882V93H188.74ZM258 305.23L185.975 305.228L240.966 161.354H258V305.23Z" fill="white"/>
</g>
<defs>
<clipPath id="clip0_118_430">
<rect width="1512" height="541" fill="white"/>
</clipPath>
</defs>
</svg>
