<svg width="939" height="627" viewBox="0 0 939 627" fill="none" xmlns="http://www.w3.org/2000/svg">
<path d="M803.38 106.7C802.34 104.88 802.97 102.55 804.79 101.51L834.89 84.25C836.71 83.21 839.04 83.84 840.08 85.66C841.12 87.48 840.49 89.81 838.67 90.85L808.57 108.11C806.75 109.15 804.43 108.53 803.38 106.7Z" fill="url(#paint0_linear_82_1237)"/>
<path d="M836.78 91.35C838.879 91.35 840.58 89.6487 840.58 87.55C840.58 85.4513 838.879 83.75 836.78 83.75C834.681 83.75 832.98 85.4513 832.98 87.55C832.98 89.6487 834.681 91.35 836.78 91.35Z" fill="url(#paint1_linear_82_1237)"/>
<path d="M836.78 98.69C842.932 98.69 847.92 93.7024 847.92 87.55C847.92 81.3975 842.932 76.41 836.78 76.41C830.628 76.41 825.64 81.3975 825.64 87.55C825.64 93.7024 830.628 98.69 836.78 98.69Z" fill="url(#paint2_radial_82_1237)"/>
<path d="M770.84 64.83C769.88 63.15 770.46 61 772.14 60.04L844.76 18.4C846.44 17.44 848.59 18.02 849.55 19.7C850.51 21.38 849.93 23.53 848.25 24.49L775.63 66.13C773.95 67.09 771.81 66.51 770.84 64.83Z" fill="url(#paint3_linear_82_1237)"/>
<path d="M846.51 28.56C850.442 28.56 853.63 25.3723 853.63 21.44C853.63 17.5077 850.442 14.32 846.51 14.32C842.578 14.32 839.39 17.5077 839.39 21.44C839.39 25.3723 842.578 28.56 846.51 28.56Z" fill="url(#paint4_linear_82_1237)"/>
<path d="M846.51 42.44C858.108 42.44 867.51 33.038 867.51 21.44C867.51 9.84202 858.108 0.440002 846.51 0.440002C834.912 0.440002 825.51 9.84202 825.51 21.44C825.51 33.038 834.912 42.44 846.51 42.44Z" fill="url(#paint5_radial_82_1237)"/>
<path d="M85 521.19C86.24 523.35 85.49 526.11 83.33 527.35L23.55 561.63C21.39 562.87 18.63 562.12 17.39 559.96C16.15 557.8 16.9 555.04 19.06 553.8L78.84 519.52C81 518.28 83.76 519.03 85 521.19Z" fill="url(#paint6_linear_82_1237)"/>
<path d="M21.3 565.48C25.5912 565.48 29.07 562.001 29.07 557.71C29.07 553.419 25.5912 549.94 21.3 549.94C17.0087 549.94 13.53 553.419 13.53 557.71C13.53 562.001 17.0087 565.48 21.3 565.48Z" fill="url(#paint7_linear_82_1237)"/>
<path d="M21.3 578.39C32.7212 578.39 41.98 569.131 41.98 557.71C41.98 546.289 32.7212 537.03 21.3 537.03C9.87874 537.03 0.619995 546.289 0.619995 557.71C0.619995 569.131 9.87874 578.39 21.3 578.39Z" fill="url(#paint8_radial_82_1237)"/>
<path d="M255.78 471.93C256.73 473.59 256.16 475.7 254.5 476.65L161.25 530.12C159.59 531.07 157.48 530.5 156.53 528.84C155.58 527.18 156.15 525.07 157.81 524.12L251.06 470.65C252.71 469.7 254.83 470.27 255.78 471.93Z" fill="url(#paint9_linear_82_1237)"/>
<path d="M159.53 533.08C162.822 533.08 165.49 530.412 165.49 527.12C165.49 523.828 162.822 521.16 159.53 521.16C156.238 521.16 153.57 523.828 153.57 527.12C153.57 530.412 156.238 533.08 159.53 533.08Z" fill="url(#paint10_linear_82_1237)"/>
<path d="M159.53 551.46C172.973 551.46 183.87 540.563 183.87 527.12C183.87 513.677 172.973 502.78 159.53 502.78C146.087 502.78 135.19 513.677 135.19 527.12C135.19 540.563 146.087 551.46 159.53 551.46Z" fill="url(#paint11_radial_82_1237)"/>
<path d="M387.29 516.3C388.79 518.92 387.89 522.27 385.26 523.77L312.71 565.37C310.09 566.87 306.74 565.97 305.24 563.34C303.74 560.72 304.64 557.37 307.27 555.87L379.82 514.27C382.43 512.77 385.78 513.67 387.29 516.3Z" fill="url(#paint12_linear_82_1237)"/>
<path d="M309.99 570.05C315.198 570.05 319.42 565.828 319.42 560.62C319.42 555.412 315.198 551.19 309.99 551.19C304.782 551.19 300.56 555.412 300.56 560.62C300.56 565.828 304.782 570.05 309.99 570.05Z" fill="url(#paint13_linear_82_1237)"/>
<path d="M309.99 587.43C324.797 587.43 336.8 575.427 336.8 560.62C336.8 545.813 324.797 533.81 309.99 533.81C295.183 533.81 283.18 545.813 283.18 560.62C283.18 575.427 295.183 587.43 309.99 587.43Z" fill="url(#paint14_radial_82_1237)"/>
<path d="M134.51 594.69C134.51 596.59 133.52 598.43 131.76 599.44L102.75 616.07L83.7 627H61.68L102.75 603.45L126.31 589.94C128.93 588.43 132.28 589.34 133.78 591.97C134.27 592.83 134.51 593.77 134.51 594.69Z" fill="url(#paint15_linear_82_1237)"/>
<path d="M129.03 604.12C134.238 604.12 138.46 599.898 138.46 594.69C138.46 589.482 134.238 585.26 129.03 585.26C123.822 585.26 119.6 589.482 119.6 594.69C119.6 599.898 123.822 604.12 129.03 604.12Z" fill="url(#paint16_linear_82_1237)"/>
<path d="M129.03 610.38C137.695 610.38 144.72 603.355 144.72 594.69C144.72 586.025 137.695 579 129.03 579C120.365 579 113.34 586.025 113.34 594.69C113.34 603.355 120.365 610.38 129.03 610.38Z" fill="url(#paint17_radial_82_1237)"/>
<path d="M116.21 485.52C115.05 483.49 115.75 480.91 117.78 479.75L305.56 372.07C307.59 370.91 310.17 371.61 311.33 373.64C312.49 375.67 311.79 378.25 309.76 379.41L121.98 487.08C119.95 488.24 117.37 487.54 116.21 485.52Z" fill="url(#paint18_linear_82_1237)"/>
<path d="M307.66 383.03C311.686 383.03 314.95 379.766 314.95 375.74C314.95 371.714 311.686 368.45 307.66 368.45C303.634 368.45 300.37 371.714 300.37 375.74C300.37 379.766 303.634 383.03 307.66 383.03Z" fill="url(#paint19_linear_82_1237)"/>
<path d="M307.66 392.81C317.087 392.81 324.73 385.167 324.73 375.74C324.73 366.312 317.087 358.67 307.66 358.67C298.232 358.67 290.59 366.312 290.59 375.74C290.59 385.167 298.232 392.81 307.66 392.81Z" fill="url(#paint20_radial_82_1237)"/>
<path d="M939 155.82V168.44L924.35 176.84L922.09 178.14L916.49 181.35L906.39 187.14C903.77 188.65 900.42 187.74 898.92 185.12C898.43 184.26 898.19 183.32 898.19 182.4C898.19 180.5 899.18 178.66 900.95 177.64L911.05 171.85L918.9 167.35L922.09 165.52L939 155.82Z" fill="url(#paint21_linear_82_1237)"/>
<path d="M903.67 195.26C910.778 195.26 916.54 189.498 916.54 182.39C916.54 175.282 910.778 169.52 903.67 169.52C896.562 169.52 890.8 175.282 890.8 182.39C890.8 189.498 896.562 195.26 903.67 195.26Z" fill="url(#paint22_linear_82_1237)"/>
<path d="M903.67 203.79C915.489 203.79 925.07 194.209 925.07 182.39C925.07 170.571 915.489 160.99 903.67 160.99C891.851 160.99 882.27 170.571 882.27 182.39C882.27 194.209 891.851 203.79 903.67 203.79Z" fill="url(#paint23_radial_82_1237)"/>
<path d="M939 94.51V99.83L925.38 107.64L922.09 109.53L922.07 109.54L917.81 111.98C916.71 112.61 915.3 112.23 914.66 111.13C914.45 110.77 914.36 110.37 914.36 109.98C914.36 109.18 914.77 108.4 915.52 107.98L919.78 105.54L922.09 104.21L923.08 103.64L939 94.51Z" fill="url(#paint24_linear_82_1237)"/>
<path d="M916.66 115.4C919.653 115.4 922.08 112.973 922.08 109.98C922.08 106.987 919.653 104.56 916.66 104.56C913.667 104.56 911.24 106.987 911.24 109.98C911.24 112.973 913.667 115.4 916.66 115.4Z" fill="url(#paint25_linear_82_1237)"/>
<path d="M916.66 125.96C925.486 125.96 932.64 118.806 932.64 109.98C932.64 101.155 925.486 94 916.66 94C907.835 94 900.68 101.155 900.68 109.98C900.68 118.806 907.835 125.96 916.66 125.96Z" fill="url(#paint26_radial_82_1237)"/>
<path d="M828.25 296.27C827.62 295.16 828 293.75 829.1 293.12L907.71 248.05C908.82 247.42 910.23 247.8 910.86 248.9C911.49 250.01 911.11 251.42 910.01 252.05L831.4 297.12C830.29 297.76 828.88 297.38 828.25 296.27Z" fill="url(#paint27_linear_82_1237)"/>
<path d="M908.86 255.47C911.853 255.47 914.28 253.043 914.28 250.05C914.28 247.057 911.853 244.63 908.86 244.63C905.867 244.63 903.44 247.057 903.44 250.05C903.44 253.043 905.867 255.47 908.86 255.47Z" fill="url(#paint28_linear_82_1237)"/>
<path d="M908.86 261.43C915.145 261.43 920.24 256.335 920.24 250.05C920.24 243.765 915.145 238.67 908.86 238.67C902.575 238.67 897.48 243.765 897.48 250.05C897.48 256.335 902.575 261.43 908.86 261.43Z" fill="url(#paint29_radial_82_1237)"/>
<defs>
<linearGradient id="paint0_linear_82_1237" x1="803.348" y1="106.68" x2="840.04" y2="85.6412" gradientUnits="userSpaceOnUse">
<stop offset="0.0088742" stop-color="#BF00A5" stop-opacity="0"/>
<stop offset="0.7462" stop-color="#EE3E9E" stop-opacity="0.7439"/>
<stop offset="1" stop-color="#FF559C"/>
</linearGradient>
<linearGradient id="paint1_linear_82_1237" x1="834.851" y1="84.234" x2="838.633" y2="90.8307" gradientUnits="userSpaceOnUse">
<stop offset="0.0088742" stop-color="#FF6055"/>
<stop offset="1" stop-color="#FF2A59"/>
</linearGradient>
<radialGradient id="paint2_radial_82_1237" cx="0" cy="0" r="1" gradientUnits="userSpaceOnUse" gradientTransform="translate(836.742 87.5323) rotate(60.1712) scale(11.1442 11.1442)">
<stop offset="0.2582" stop-color="#FF6055"/>
<stop offset="0.4604" stop-color="#FF4D56" stop-opacity="0.7275"/>
<stop offset="0.7979" stop-color="#FF3458" stop-opacity="0.2725"/>
<stop offset="1" stop-color="#FF2A59" stop-opacity="0"/>
</radialGradient>
<linearGradient id="paint3_linear_82_1237" x1="770.788" y1="64.7985" x2="849.504" y2="19.6648" gradientUnits="userSpaceOnUse">
<stop offset="0.0088742" stop-color="#BF00A5" stop-opacity="0"/>
<stop offset="0.7462" stop-color="#EE3E9E" stop-opacity="0.7439"/>
<stop offset="1" stop-color="#FF559C"/>
</linearGradient>
<linearGradient id="paint4_linear_82_1237" x1="842.935" y1="15.2421" x2="850.02" y2="27.5978" gradientUnits="userSpaceOnUse">
<stop offset="0.0088742" stop-color="#FF6055"/>
<stop offset="1" stop-color="#FF2A59"/>
</linearGradient>
<radialGradient id="paint5_radial_82_1237" cx="0" cy="0" r="1" gradientUnits="userSpaceOnUse" gradientTransform="translate(846.477 21.4199) rotate(60.1713) scale(21.0033)">
<stop offset="0.2497" stop-color="#FF6055"/>
<stop offset="0.5225" stop-color="#FF4657" stop-opacity="0.6363"/>
<stop offset="0.8094" stop-color="#FF3258" stop-opacity="0.2541"/>
<stop offset="1" stop-color="#FF2A59" stop-opacity="0"/>
</radialGradient>
<linearGradient id="paint6_linear_82_1237" x1="84.9971" y1="521.173" x2="17.3879" y2="559.939" gradientUnits="userSpaceOnUse">
<stop offset="0.0088742" stop-color="#BF00A5" stop-opacity="0"/>
<stop offset="0.7462" stop-color="#EE3E9E" stop-opacity="0.7439"/>
<stop offset="1" stop-color="#FF559C"/>
</linearGradient>
<linearGradient id="paint7_linear_82_1237" x1="25.2012" y1="564.506" x2="17.4678" y2="551.019" gradientUnits="userSpaceOnUse">
<stop offset="0.0088742" stop-color="#FF6055"/>
<stop offset="1" stop-color="#FF2A59"/>
</linearGradient>
<radialGradient id="paint8_radial_82_1237" cx="0" cy="0" r="1" gradientUnits="userSpaceOnUse" gradientTransform="translate(21.3344 557.763) rotate(-119.829) scale(20.6777)">
<stop offset="0.2263" stop-color="#FF6055"/>
<stop offset="1" stop-color="#FF2A59" stop-opacity="0"/>
</radialGradient>
<linearGradient id="paint9_linear_82_1237" x1="255.801" y1="471.939" x2="156.548" y2="528.848" gradientUnits="userSpaceOnUse">
<stop offset="0.0088742" stop-color="#BF00A5" stop-opacity="0"/>
<stop offset="0.7462" stop-color="#EE3E9E" stop-opacity="0.7439"/>
<stop offset="1" stop-color="#FF559C"/>
</linearGradient>
<linearGradient id="paint10_linear_82_1237" x1="162.522" y1="532.348" x2="156.594" y2="522.009" gradientUnits="userSpaceOnUse">
<stop offset="0.0088742" stop-color="#FF6055"/>
<stop offset="1" stop-color="#FF2A59"/>
</linearGradient>
<radialGradient id="paint11_radial_82_1237" cx="0" cy="0" r="1" gradientUnits="userSpaceOnUse" gradientTransform="translate(159.558 527.179) rotate(-119.829) scale(24.3399)">
<stop offset="0.195" stop-color="#FF6055"/>
<stop offset="1" stop-color="#FF2A59" stop-opacity="0"/>
</radialGradient>
<linearGradient id="paint12_linear_82_1237" x1="387.277" y1="516.281" x2="305.226" y2="563.327" gradientUnits="userSpaceOnUse">
<stop offset="0.0088742" stop-color="#BF00A5" stop-opacity="0"/>
<stop offset="0.7462" stop-color="#EE3E9E" stop-opacity="0.7439"/>
<stop offset="1" stop-color="#FF559C"/>
</linearGradient>
<linearGradient id="paint13_linear_82_1237" x1="314.706" y1="568.867" x2="305.321" y2="552.498" gradientUnits="userSpaceOnUse">
<stop offset="0.0088742" stop-color="#FF6055"/>
<stop offset="1" stop-color="#FF2A59"/>
</linearGradient>
<radialGradient id="paint14_radial_82_1237" cx="0" cy="0" r="1" gradientUnits="userSpaceOnUse" gradientTransform="translate(310.013 560.682) rotate(-119.829) scale(26.8091)">
<stop offset="0.232" stop-color="#FF6055"/>
<stop offset="0.7133" stop-color="#FF3B58" stop-opacity="0.3733"/>
<stop offset="1" stop-color="#FF2A59" stop-opacity="0"/>
</radialGradient>
<linearGradient id="paint15_linear_82_1237" x1="64.2119" y1="632.335" x2="126.712" y2="595.585" gradientUnits="userSpaceOnUse">
<stop offset="0.0088742" stop-color="#BF00A5" stop-opacity="0"/>
<stop offset="0.7462" stop-color="#EE3E9E" stop-opacity="0.7439"/>
<stop offset="1" stop-color="#FF559C"/>
</linearGradient>
<linearGradient id="paint16_linear_82_1237" x1="124.313" y1="586.437" x2="133.699" y2="602.805" gradientUnits="userSpaceOnUse">
<stop offset="0.0088742" stop-color="#FF6055"/>
<stop offset="1" stop-color="#FF2A59"/>
</linearGradient>
<radialGradient id="paint17_radial_82_1237" cx="0" cy="0" r="1" gradientUnits="userSpaceOnUse" gradientTransform="translate(129.006 594.621) rotate(60.1713) scale(15.6871 15.6871)">
<stop offset="0.3697" stop-color="#FF6055"/>
<stop offset="1" stop-color="#FF2A59" stop-opacity="0"/>
</radialGradient>
<linearGradient id="paint18_linear_82_1237" x1="116.151" y1="485.561" x2="311.276" y2="373.681" gradientUnits="userSpaceOnUse">
<stop offset="0.0088742" stop-color="#BF00A5" stop-opacity="0"/>
<stop offset="0.7462" stop-color="#EE3E9E" stop-opacity="0.7439"/>
<stop offset="1" stop-color="#FF559C"/>
</linearGradient>
<linearGradient id="paint19_linear_82_1237" x1="304.011" y1="369.356" x2="311.26" y2="381.999" gradientUnits="userSpaceOnUse">
<stop offset="0.0088742" stop-color="#FF6055"/>
<stop offset="1" stop-color="#FF2A59"/>
</linearGradient>
<radialGradient id="paint20_radial_82_1237" cx="0" cy="0" r="1" gradientUnits="userSpaceOnUse" gradientTransform="translate(307.636 375.678) rotate(60.1713) scale(17.0727 17.0727)">
<stop offset="0.3697" stop-color="#FF6055"/>
<stop offset="1" stop-color="#FF2A59" stop-opacity="0"/>
</radialGradient>
<linearGradient id="paint21_linear_82_1237" x1="949.195" y1="156.423" x2="905.195" y2="181.423" gradientUnits="userSpaceOnUse">
<stop offset="0.0088742" stop-color="#BF00A5" stop-opacity="0"/>
<stop offset="0.7462" stop-color="#EE3E9E" stop-opacity="0.7439"/>
<stop offset="1" stop-color="#FF559C"/>
</linearGradient>
<linearGradient id="paint22_linear_82_1237" x1="910.1" y1="193.593" x2="897.295" y2="171.261" gradientUnits="userSpaceOnUse">
<stop offset="0.0088742" stop-color="#FF6055"/>
<stop offset="1" stop-color="#FF2A59"/>
</linearGradient>
<radialGradient id="paint23_radial_82_1237" cx="0" cy="0" r="1" gradientUnits="userSpaceOnUse" gradientTransform="translate(903.697 182.427) rotate(-119.829) scale(21.4022 21.4022)">
<stop offset="0.3697" stop-color="#FF6055"/>
<stop offset="1" stop-color="#FF2A59" stop-opacity="0"/>
</radialGradient>
<linearGradient id="paint24_linear_82_1237" x1="940.133" y1="96.6067" x2="918.049" y2="109.107" gradientUnits="userSpaceOnUse">
<stop offset="0.0088742" stop-color="#BF00A5" stop-opacity="0"/>
<stop offset="0.7462" stop-color="#EE3E9E" stop-opacity="0.7439"/>
<stop offset="1" stop-color="#FF559C"/>
</linearGradient>
<linearGradient id="paint25_linear_82_1237" x1="919.391" y1="114.719" x2="913.997" y2="105.311" gradientUnits="userSpaceOnUse">
<stop offset="0.0088742" stop-color="#FF6055"/>
<stop offset="1" stop-color="#FF2A59"/>
</linearGradient>
<radialGradient id="paint26_radial_82_1237" cx="0" cy="0" r="1" gradientUnits="userSpaceOnUse" gradientTransform="translate(916.694 110.015) rotate(-119.829) scale(15.978 15.978)">
<stop offset="0.2208" stop-color="#FF6055"/>
<stop offset="0.3182" stop-color="#FF5556" stop-opacity="0.875"/>
<stop offset="0.5683" stop-color="#FF3D58" stop-opacity="0.5541"/>
<stop offset="0.8016" stop-color="#FF2F59" stop-opacity="0.2546"/>
<stop offset="1" stop-color="#FF2A59" stop-opacity="0"/>
</radialGradient>
<linearGradient id="paint27_linear_82_1237" x1="828.196" y1="296.247" x2="910.806" y2="248.88" gradientUnits="userSpaceOnUse">
<stop offset="0.0088742" stop-color="#BF00A5" stop-opacity="0"/>
<stop offset="0.7462" stop-color="#EE3E9E" stop-opacity="0.7439"/>
<stop offset="1" stop-color="#FF559C"/>
</linearGradient>
<linearGradient id="paint28_linear_82_1237" x1="906.126" y1="245.311" x2="911.52" y2="254.719" gradientUnits="userSpaceOnUse">
<stop offset="0.0088742" stop-color="#FF6055"/>
<stop offset="1" stop-color="#FF2A59"/>
</linearGradient>
<radialGradient id="paint29_radial_82_1237" cx="0" cy="0" r="1" gradientUnits="userSpaceOnUse" gradientTransform="translate(908.823 250.015) rotate(60.1712) scale(11.3821 11.3821)">
<stop offset="0.3697" stop-color="#FF6055"/>
<stop offset="1" stop-color="#FF2A59" stop-opacity="0"/>
</radialGradient>
</defs>
</svg>
