<svg width="131" height="32" viewBox="0 0 131 32" fill="none" xmlns="http://www.w3.org/2000/svg">
<g clip-path="url(#clip0_106_971)">
<path d="M42.4809 17.565C46.3583 17.565 48.0867 15.1825 48.0867 10.7446C48.0867 6.35329 46.3583 4.48473 42.4809 4.48473H35.9875V17.565H42.4809ZM35.9875 22.0497V32H30.8021V0.000160217H42.5275C49.8152 0.000160217 53.4122 3.55037 53.4122 10.7446C53.4122 17.9854 49.8152 22.0497 42.5275 22.0497H35.9875Z" fill="#DBDBD7"/>
<path d="M55.3267 3.8147e-05H78.6844V4.62487H69.6683V31.9999H64.4363V4.62487H55.3267V3.8147e-05Z" fill="#DBDBD7"/>
<path d="M82.9812 3.8147e-05H103.162V4.53141H88.1666V13.5942H100.359V18.0787H88.1666V27.4217H103.162V31.9999H82.9812V3.8147e-05Z" fill="#DBDBD7"/>
<path d="M118.438 12.6131L125.398 0H130.864L121.381 16.257L130.864 32H125.071L118.204 19.9474L111.197 32H105.731L115.261 16.5372L105.731 0H111.57L118.438 12.6131Z" fill="#DBDBD7"/>
<path d="M8.00534 20.5547H18.2358L14.3118 4.34457H11.9762L8.00534 20.5547ZM7.95869 9.91821e-05H18.2826L26.2241 31.9999H20.9921L19.2637 25.1329H6.97769L5.24907 31.9999H0.0636902L7.95869 9.91821e-05Z" fill="#DBDBD7"/>
</g>
<defs>
<clipPath id="clip0_106_971">
<rect width="130.8" height="32" fill="white" transform="translate(0.0636902)"/>
</clipPath>
</defs>
</svg>
