<svg width="24" height="25" viewBox="0 0 24 25" fill="none" xmlns="http://www.w3.org/2000/svg">
<path d="M4.51709 22.881C3.19818 22.881 2.27006 22.6367 1.73273 22.1482C1.24424 21.6109 1 20.6828 1 19.3639V15.0408C1 12.3541 1.29309 10.0582 1.87927 8.15314C2.5143 6.24805 3.36915 4.44065 4.44382 2.73096L8.47382 3.97659C8.08303 5.44205 7.81436 6.85865 7.66782 8.22641C7.57012 9.59417 7.52127 11.0596 7.52127 12.6228C9.42636 12.6228 10.3789 13.6486 10.3789 15.7002L10.3056 19.3639C10.2568 20.6828 9.9637 21.6109 9.42636 22.1482C8.88903 22.6367 7.98533 22.881 6.71527 22.881H4.51709ZM17.4131 22.881C16.0942 22.881 15.1661 22.6367 14.6287 22.1482C14.1402 21.6109 13.896 20.6828 13.896 19.3639V15.0408C13.896 12.3541 14.1891 10.0582 14.7753 8.15314C15.4103 6.24805 16.2652 4.44065 17.3398 2.73096L21.3698 3.97659C20.979 5.44205 20.7104 6.85865 20.5638 8.22641C20.4661 9.59417 20.4173 11.0596 20.4173 12.6228C22.3224 12.6228 23.2749 13.6486 23.2749 15.7002L23.2016 19.3639C23.1528 20.6828 22.8597 21.6109 22.3224 22.1482C21.785 22.6367 20.8813 22.881 19.6113 22.881H17.4131Z" fill="url(#paint0_linear_125_741)"/>
<defs>
<linearGradient id="paint0_linear_125_741" x1="12.1375" y1="2.73096" x2="12.1375" y2="22.881" gradientUnits="userSpaceOnUse">
<stop stop-color="#DEE600"/>
<stop offset="1" stop-color="#ADCC00"/>
</linearGradient>
</defs>
</svg>
