<svg width="80" height="81" viewBox="0 0 80 81" fill="none" xmlns="http://www.w3.org/2000/svg">
<rect y="0.730957" width="80" height="80" rx="40" fill="#DEE600"/>
<path fill-rule="evenodd" clip-rule="evenodd" d="M34 30.7309C28 30.7309 26 36.7309 26 41.7309C26 47.7309 30 56.7309 34 56.7309C36.176 56.6389 37.358 55.7309 40 55.7309C42.624 55.7309 43 56.7309 46 56.7309C49 56.7309 54 50.7309 54 46.7309C53.944 46.7109 49.056 45.9249 49 40.7309C48.962 36.3909 53.832 34.8229 54 34.7309C51.954 31.7469 48.098 30.8049 47 30.7309C44.134 30.5089 41.34 32.7309 40 32.7309C38.64 32.7309 36.2 30.7309 34 30.7309Z" stroke="#181816" stroke-width="2" stroke-linecap="round" stroke-linejoin="round"/>
<path d="M40 24.731C42.2091 24.731 44 22.9401 44 20.731C41.7909 20.731 40 22.5218 40 24.731" stroke="#181816" stroke-width="2" stroke-linecap="round" stroke-linejoin="round"/>
</svg>
