<svg width="80" height="81" viewBox="0 0 80 81" fill="none" xmlns="http://www.w3.org/2000/svg">
<rect y="0.730957" width="80" height="80" rx="40" fill="#DEE600"/>
<path d="M34.3096 55.6817C34.8347 55.5107 35.1219 54.9464 34.9509 54.4213C34.7799 53.8961 34.2156 53.609 33.6904 53.78L34.3096 55.6817ZM22.2822 47.7715C21.7523 47.6157 21.1965 47.9188 21.0406 48.4487C20.8848 48.9785 21.188 49.5344 21.7178 49.6902L22.2822 47.7715ZM45 58.7309C45 59.2831 45.4477 59.7309 46 59.7309C46.5523 59.7309 47 59.2831 47 58.7309H45ZM45 47.7309L44.8935 46.7365C44.5105 46.7776 44.1852 47.0348 44.057 47.398C43.9288 47.7612 44.0206 48.1656 44.2929 48.438L45 47.7309ZM56 35.7309H57V35.7298L56 35.7309ZM53.4 29.3309L52.464 28.9788C52.3277 29.3412 52.4129 29.7497 52.6826 30.0275L53.4 29.3309ZM53.2 22.9309L54.1122 22.521C53.9896 22.2483 53.7515 22.0448 53.4631 21.9661L53.2 22.9309ZM46.2 25.5309L45.948 26.4986C46.2239 26.5704 46.5174 26.5211 46.7547 26.3629L46.2 25.5309ZM33.8 25.5309L33.2453 26.3629C33.4826 26.5211 33.7761 26.5704 34.052 26.4986L33.8 25.5309ZM26.8 22.9309L26.5369 21.9661C26.2485 22.0448 26.0104 22.2483 25.8878 22.521L26.8 22.9309ZM26.6 29.3309L27.3174 30.0275C27.5871 29.7497 27.6723 29.3412 27.536 28.9788L26.6 29.3309ZM24 35.7309L23 35.7298V35.7309H24ZM35 47.7309L35.7071 48.438C35.9794 48.1656 36.0712 47.7612 35.943 47.398C35.8148 47.0348 35.4895 46.7776 35.1065 46.7365L35 47.7309ZM34 51.7309H35C35 51.6894 34.9974 51.648 34.9923 51.6068L34 51.7309ZM33 58.7309C33 59.2831 33.4477 59.7309 34 59.7309C34.5523 59.7309 35 59.2831 35 58.7309H33ZM33.6904 53.78C31.6678 54.4385 30.264 54.4374 29.2444 54.1522C28.2313 53.8688 27.4756 53.2713 26.8046 52.4997C26.0793 51.6656 25.6038 50.8355 24.904 49.8893C24.275 49.0389 23.47 48.1208 22.2822 47.7715L21.7178 49.6902C22.23 49.8409 22.7 50.2728 23.296 51.0786C23.8212 51.7887 24.5207 52.9211 25.2954 53.812C26.1244 54.7654 27.1937 55.6554 28.7056 56.0783C30.211 56.4993 32.0322 56.4232 34.3096 55.6817L33.6904 53.78ZM47 58.7309V51.7309H45V58.7309H47ZM47 51.7309C47 50.8412 47.0545 49.9753 46.9364 49.2665C46.7968 48.4289 46.4298 47.7464 45.7071 47.0238L44.2929 48.438C44.7702 48.9153 44.9032 49.2328 44.9636 49.5953C45.0455 50.0864 45 50.6205 45 51.7309H47ZM45.1065 48.7252C47.9731 48.418 50.972 47.6882 53.2546 45.7119C55.58 43.6983 57 40.5376 57 35.7309H55C55 40.1242 53.72 42.6634 51.9454 44.1999C50.128 45.7735 47.6269 46.4437 44.8935 46.7365L45.1065 48.7252ZM57 35.7298C56.9973 33.08 55.9635 30.5352 54.1174 28.6342L52.6826 30.0275C54.1667 31.5558 54.9978 33.6016 55 35.7319L57 35.7298ZM54.336 29.6829C55.2099 27.3597 55.1294 24.7851 54.1122 22.521L52.2878 23.3407C53.0887 25.1231 53.152 27.1499 52.464 28.9788L54.336 29.6829ZM53.2 22.9309C53.4631 21.9661 53.4622 21.9658 53.4613 21.9656C53.461 21.9655 53.4601 21.9653 53.4594 21.9651C53.4582 21.9648 53.4568 21.9644 53.4555 21.9641C53.4528 21.9633 53.45 21.9626 53.4471 21.9618C53.4411 21.9603 53.4347 21.9587 53.4276 21.957C53.4136 21.9536 53.3973 21.9499 53.3787 21.9461C53.3416 21.9383 53.2956 21.9299 53.2406 21.9218C53.1305 21.9057 52.985 21.8914 52.8035 21.8874C52.4399 21.8793 51.9361 21.9127 51.2876 22.0537C49.9913 22.3355 48.1266 23.0446 45.6453 24.6988L46.7547 26.3629C49.0734 24.8171 50.7087 24.2262 51.7124 24.008C52.2139 23.899 52.5601 23.8824 52.759 23.8869C52.8588 23.8891 52.9226 23.8966 52.9516 23.9008C52.9661 23.9029 52.972 23.9043 52.9695 23.9037C52.9682 23.9035 52.9649 23.9028 52.9594 23.9014C52.9567 23.9008 52.9535 23.9 52.9497 23.899C52.9478 23.8985 52.9458 23.898 52.9437 23.8975C52.9426 23.8972 52.9415 23.8969 52.9404 23.8966C52.9398 23.8964 52.9389 23.8962 52.9387 23.8961C52.9378 23.8959 52.9369 23.8956 53.2 22.9309ZM46.452 24.5631C42.2212 23.4613 37.7788 23.4613 33.548 24.5631L34.052 26.4986C37.9523 25.4828 42.0477 25.4828 45.948 26.4986L46.452 24.5631ZM34.3547 24.6988C31.8734 23.0446 30.0087 22.3355 28.7124 22.0537C28.0639 21.9127 27.5601 21.8793 27.1965 21.8874C27.015 21.8914 26.8695 21.9057 26.7594 21.9218C26.7044 21.9299 26.6584 21.9383 26.6213 21.9461C26.6027 21.9499 26.5864 21.9536 26.5724 21.957C26.5653 21.9587 26.5589 21.9603 26.5529 21.9618C26.55 21.9626 26.5472 21.9633 26.5445 21.9641C26.5432 21.9644 26.5419 21.9648 26.5406 21.9651C26.5399 21.9653 26.539 21.9655 26.5387 21.9656C26.5378 21.9658 26.5369 21.9661 26.8 22.9309C27.0631 23.8956 27.0622 23.8959 27.0613 23.8961C27.0611 23.8962 27.0602 23.8964 27.0596 23.8966C27.0585 23.8969 27.0574 23.8972 27.0563 23.8975C27.0542 23.898 27.0522 23.8985 27.0503 23.899C27.0465 23.9 27.0433 23.9008 27.0406 23.9014C27.0351 23.9028 27.0318 23.9035 27.0305 23.9037C27.028 23.9043 27.0339 23.9029 27.0484 23.9008C27.0774 23.8966 27.1413 23.8891 27.241 23.8869C27.4399 23.8824 27.7861 23.899 28.2876 24.008C29.2913 24.2262 30.9266 24.8171 33.2453 26.3629L34.3547 24.6988ZM25.8878 22.521C24.8706 24.7851 24.7901 27.3597 25.664 29.6829L27.536 28.9788C26.848 27.1499 26.9113 25.1231 27.7122 23.3407L25.8878 22.521ZM25.8826 28.6342C24.0365 30.5352 23.0027 33.08 23 35.7298L25 35.7319C25.0022 33.6016 25.8333 31.5558 27.3174 30.0275L25.8826 28.6342ZM23 35.7309C23 40.5376 24.42 43.6983 26.7454 45.7119C29.028 47.6882 32.0269 48.418 34.8935 48.7252L35.1065 46.7365C32.3731 46.4437 29.872 45.7735 28.0546 44.1999C26.28 42.6634 25 40.1242 25 35.7309H23ZM34.2929 47.0238C33.5596 47.7571 33.1579 48.5347 32.993 49.392C32.8359 50.2088 32.9064 51.0446 33.0077 51.8549L34.9923 51.6068C34.8936 50.8171 34.8641 50.2529 34.957 49.7697C35.0421 49.327 35.2404 48.9046 35.7071 48.438L34.2929 47.0238ZM33 51.7309V58.7309H35V51.7309H33Z" fill="#181816"/>
</svg>
