<svg width="88" height="89" viewBox="0 0 88 89" fill="none" xmlns="http://www.w3.org/2000/svg">
<g filter="url(#filter0_d_114_761)">
<rect x="4" y="0.730957" width="80" height="80" rx="40" fill="#DEE600" shape-rendering="crispEdges"/>
<path fill-rule="evenodd" clip-rule="evenodd" d="M42.906 32.843C42.906 31.597 43.942 30.885 45.79 30.885C49.17 30.885 52.61 31.571 55 32.731L56 24.731C54.104 23.833 50.36 22.731 45 22.731C41.21 22.731 38.254 22.905 36 24.731C33.656 26.643 32 29.391 32 32.731C32 38.791 35.916 42.543 42 44.731C45.922 46.111 48 46.217 48 47.731C48 49.201 46.298 50.731 44 50.731C41.154 50.731 36.074 49.513 33 47.731L32 55.731C34.642 57.199 38.948 58.731 44 58.731C48.008 58.731 51.914 57.795 54.168 56.011C56.694 54.053 58 51.475 58 47.731C58 41.539 54.17 38.637 47.994 36.457C44.702 35.247 42.906 34.317 42.906 32.843Z" stroke="#181816" stroke-width="2" stroke-linecap="round" stroke-linejoin="round"/>
</g>
<defs>
<filter id="filter0_d_114_761" x="0" y="0.730957" width="88" height="88" filterUnits="userSpaceOnUse" color-interpolation-filters="sRGB">
<feFlood flood-opacity="0" result="BackgroundImageFix"/>
<feColorMatrix in="SourceAlpha" type="matrix" values="0 0 0 0 0 0 0 0 0 0 0 0 0 0 0 0 0 0 127 0" result="hardAlpha"/>
<feOffset dy="4"/>
<feGaussianBlur stdDeviation="2"/>
<feComposite in2="hardAlpha" operator="out"/>
<feColorMatrix type="matrix" values="0 0 0 0 0 0 0 0 0 0 0 0 0 0 0 0 0 0 0.25 0"/>
<feBlend mode="normal" in2="BackgroundImageFix" result="effect1_dropShadow_114_761"/>
<feBlend mode="normal" in="SourceGraphic" in2="effect1_dropShadow_114_761" result="shape"/>
</filter>
</defs>
</svg>
