<svg width="80" height="81" viewBox="0 0 80 81" fill="none" xmlns="http://www.w3.org/2000/svg">
<rect y="0.730957" width="80" height="80" rx="40" fill="#DEE600"/>
<circle cx="46" cy="40.731" r="6" stroke="#181816" stroke-width="2" stroke-linecap="round" stroke-linejoin="round"/>
<rect x="28" y="22.731" width="24" height="12" rx="3" stroke="#181816" stroke-width="2" stroke-linecap="round" stroke-linejoin="round"/>
<path d="M34 35.731C34.5523 35.731 35 35.2832 35 34.731C35 34.1787 34.5523 33.731 34 33.731V35.731ZM40 47.731C40.5523 47.731 41 47.2832 41 46.731C41 46.1787 40.5523 45.731 40 45.731V47.731ZM34 47.731C34.5523 47.731 35 47.2832 35 46.731C35 46.1787 34.5523 45.731 34 45.731V47.731ZM41 22.731C41 22.1787 40.5523 21.731 40 21.731C39.4477 21.731 39 22.1787 39 22.731H41ZM34 33.731C30.134 33.731 27 36.865 27 40.731H29C29 37.9695 31.2386 35.731 34 35.731V33.731ZM27 40.731C27 44.597 30.134 47.731 34 47.731V45.731C31.2386 45.731 29 43.4924 29 40.731H27ZM34 47.731H40V45.731H34V47.731ZM34 45.731C30.134 45.731 27 48.865 27 52.731H29C29 49.9695 31.2386 47.731 34 47.731V45.731ZM27 52.731C27 56.597 30.134 59.731 34 59.731V57.731C31.2386 57.731 29 55.4924 29 52.731H27ZM34 59.731C37.866 59.731 41 56.597 41 52.731H39C39 55.4924 36.7614 57.731 34 57.731V59.731ZM41 52.731V22.731H39V52.731H41Z" fill="#181816"/>
</svg>
