<svg width="80" height="81" viewBox="0 0 80 81" fill="none" xmlns="http://www.w3.org/2000/svg">
<rect y="0.730957" width="80" height="80" rx="40" fill="#DEE600"/>
<path d="M39 40.731C39 41.2832 39.4477 41.731 40 41.731C40.5523 41.731 41 41.2832 41 40.731H39ZM47 40.731C47 41.2832 47.4477 41.731 48 41.731C48.5523 41.731 49 41.2832 49 40.731H47ZM47 36.731C47 37.2832 47.4477 37.731 48 37.731C48.5523 37.731 49 37.2832 49 36.731H47ZM40 39.731C39.4477 39.731 39 40.1787 39 40.731C39 41.2832 39.4477 41.731 40 41.731V39.731ZM41 40.731V28.731H39V40.731H41ZM41 28.731C41 27.0741 42.3431 25.731 44 25.731V23.731C41.2386 23.731 39 25.9695 39 28.731H41ZM44 25.731C45.6569 25.731 47 27.0741 47 28.731H49C49 25.9695 46.7614 23.731 44 23.731V25.731ZM47 28.731V40.731H49V28.731H47ZM49 36.731C49 35.0741 50.3431 33.731 52 33.731V31.731C49.2386 31.731 47 33.9695 47 36.731H49ZM52 33.731C53.6569 33.731 55 35.0741 55 36.731H57C57 33.9695 54.7614 31.731 52 31.731V33.731ZM55 36.731C55 38.3878 53.6569 39.731 52 39.731V41.731C54.7614 41.731 57 39.4924 57 36.731H55ZM52 39.731H40V41.731H52V39.731Z" fill="#181816"/>
<path d="M40 39.731C39.4477 39.731 39 40.1787 39 40.731C39 41.2832 39.4477 41.731 40 41.731V39.731ZM40 47.731C39.4477 47.731 39 48.1787 39 48.731C39 49.2832 39.4477 49.731 40 49.731V47.731ZM44 47.731C43.4477 47.731 43 48.1787 43 48.731C43 49.2832 43.4477 49.731 44 49.731V47.731ZM41 40.731C41 40.1787 40.5523 39.731 40 39.731C39.4477 39.731 39 40.1787 39 40.731H41ZM40 41.731H52V39.731H40V41.731ZM52 41.731C53.6569 41.731 55 43.0741 55 44.731H57C57 41.9695 54.7614 39.731 52 39.731V41.731ZM55 44.731C55 46.3878 53.6569 47.731 52 47.731V49.731C54.7614 49.731 57 47.4924 57 44.731H55ZM52 47.731H40V49.731H52V47.731ZM44 49.731C45.6569 49.731 47 51.0741 47 52.731H49C49 49.9695 46.7614 47.731 44 47.731V49.731ZM47 52.731C47 54.3878 45.6569 55.731 44 55.731V57.731C46.7614 57.731 49 55.4924 49 52.731H47ZM44 55.731C42.3431 55.731 41 54.3878 41 52.731H39C39 55.4924 41.2386 57.731 44 57.731V55.731ZM41 52.731V40.731H39V52.731H41Z" fill="#181816"/>
<path d="M41 40.731C41 40.1787 40.5523 39.731 40 39.731C39.4477 39.731 39 40.1787 39 40.731H41ZM33 40.731C33 40.1787 32.5523 39.731 32 39.731C31.4477 39.731 31 40.1787 31 40.731H33ZM33 44.731C33 44.1787 32.5523 43.731 32 43.731C31.4477 43.731 31 44.1787 31 44.731H33ZM40 41.731C40.5523 41.731 41 41.2832 41 40.731C41 40.1787 40.5523 39.731 40 39.731V41.731ZM39 40.731V52.731H41V40.731H39ZM39 52.731C39 54.3878 37.6569 55.731 36 55.731V57.731C38.7614 57.731 41 55.4924 41 52.731H39ZM36 55.731C34.3431 55.731 33 54.3878 33 52.731H31C31 55.4924 33.2386 57.731 36 57.731V55.731ZM33 52.731V40.731H31V52.731H33ZM31 44.731C31 46.3878 29.6569 47.731 28 47.731V49.731C30.7614 49.731 33 47.4924 33 44.731H31ZM28 47.731C26.3431 47.731 25 46.3878 25 44.731H23C23 47.4924 25.2386 49.731 28 49.731V47.731ZM25 44.731C25 43.0741 26.3431 41.731 28 41.731V39.731C25.2386 39.731 23 41.9695 23 44.731H25ZM28 41.731H40V39.731H28V41.731Z" fill="#181816"/>
<path d="M40 41.731C40.5523 41.731 41 41.2832 41 40.731C41 40.1787 40.5523 39.731 40 39.731V41.731ZM40 33.731C40.5523 33.731 41 33.2832 41 32.731C41 32.1787 40.5523 31.731 40 31.731V33.731ZM36 33.731C36.5523 33.731 37 33.2832 37 32.731C37 32.1787 36.5523 31.731 36 31.731V33.731ZM39 40.731C39 41.2832 39.4477 41.731 40 41.731C40.5523 41.731 41 41.2832 41 40.731H39ZM40 39.731H28V41.731H40V39.731ZM28 39.731C26.3431 39.731 25 38.3878 25 36.731H23C23 39.4924 25.2386 41.731 28 41.731V39.731ZM25 36.731C25 35.0741 26.3431 33.731 28 33.731V31.731C25.2386 31.731 23 33.9695 23 36.731H25ZM28 33.731H40V31.731H28V33.731ZM36 31.731C34.3431 31.731 33 30.3878 33 28.731H31C31 31.4924 33.2386 33.731 36 33.731V31.731ZM33 28.731C33 27.0741 34.3431 25.731 36 25.731V23.731C33.2386 23.731 31 25.9695 31 28.731H33ZM36 25.731C37.6569 25.731 39 27.0741 39 28.731H41C41 25.9695 38.7614 23.731 36 23.731V25.731ZM39 28.731V40.731H41V28.731H39Z" fill="#181816"/>
</svg>
