<svg width="80" height="81" viewBox="0 0 80 81" fill="none" xmlns="http://www.w3.org/2000/svg">
<rect y="0.730957" width="80" height="80" rx="40" fill="#DEE600"/>
<path fill-rule="evenodd" clip-rule="evenodd" d="M60 24.751C58 25.731 56.04 26.129 54 26.731C51.758 24.201 48.434 24.061 45.24 25.257C42.046 26.453 39.954 29.377 40 32.731V34.731C33.51 34.897 27.73 31.941 24 26.731C24 26.731 15.636 41.597 32 48.731C28.256 51.225 24.522 52.907 20 52.731C26.616 56.337 33.826 57.577 40.068 55.765C47.228 53.685 53.112 48.319 55.37 40.281C56.0436 37.8363 56.378 35.3107 56.364 32.775C56.36 32.277 59.384 27.231 60 24.749V24.751Z" stroke="#181816" stroke-width="2" stroke-linecap="round" stroke-linejoin="round"/>
</svg>
