<svg width="48" height="49" viewBox="0 0 48 49" fill="none" xmlns="http://www.w3.org/2000/svg">
<g clip-path="url(#clip0_125_1037)">
<path d="M20 20.731H28V28.731H20V20.731Z" stroke="#DEE600" stroke-width="1.66667" stroke-linecap="round" stroke-linejoin="round"/>
<path d="M20 20.731L13 13.731" stroke="#DEE600" stroke-width="1.66667" stroke-linecap="round" stroke-linejoin="round"/>
<path d="M19.92 12.7308C19.7361 11.4439 19.1974 10.2337 18.3645 9.23569C17.5315 8.23769 16.437 7.49137 15.2038 7.08033C13.9705 6.6693 12.6472 6.60979 11.382 6.90848C10.1169 7.20716 8.95987 7.85225 8.04067 8.77144C7.12147 9.69064 6.47639 10.8476 6.1777 12.1128C5.87902 13.378 5.93852 14.7013 6.34956 15.9346C6.7606 17.1678 7.50692 18.2622 8.50491 19.0952C9.5029 19.9282 10.7131 20.4668 12 20.6508" stroke="#DEE600" stroke-width="1.66667" stroke-linecap="round" stroke-linejoin="round"/>
<path d="M28 20.731L35 13.731" stroke="#DEE600" stroke-width="1.66667" stroke-linecap="round" stroke-linejoin="round"/>
<path d="M36 20.6508C37.2869 20.4668 38.4971 19.9282 39.4951 19.0952C40.4931 18.2622 41.2394 17.1678 41.6504 15.9346C42.0615 14.7013 42.121 13.378 41.8223 12.1128C41.5236 10.8476 40.8785 9.69064 39.9593 8.77144C39.0401 7.85225 37.8831 7.20716 36.618 6.90848C35.3528 6.60979 34.0294 6.6693 32.7962 7.08033C31.5629 7.49137 30.4685 8.23769 29.6355 9.23569C28.8025 10.2337 28.2639 11.4439 28.08 12.7308" stroke="#DEE600" stroke-width="1.66667" stroke-linecap="round" stroke-linejoin="round"/>
<path d="M28 28.731L35 35.731" stroke="#DEE600" stroke-width="1.66667" stroke-linecap="round" stroke-linejoin="round"/>
<path d="M28.08 36.731C28.2639 38.0179 28.8025 39.2281 29.6355 40.2261C30.4685 41.2241 31.5629 41.9704 32.7962 42.3815C34.0294 42.7925 35.3528 42.852 36.618 42.5533C37.8831 42.2546 39.0401 41.6096 39.9593 40.6904C40.8785 39.7712 41.5236 38.6142 41.8223 37.349C42.121 36.0838 42.0615 34.7605 41.6504 33.5272C41.2394 32.294 40.4931 31.1996 39.4951 30.3666C38.4971 29.5336 37.2869 28.995 36 28.811" stroke="#DEE600" stroke-width="1.66667" stroke-linecap="round" stroke-linejoin="round"/>
<path d="M20 28.731L13 35.731" stroke="#DEE600" stroke-width="1.66667" stroke-linecap="round" stroke-linejoin="round"/>
<path d="M12 28.811C10.7131 28.995 9.5029 29.5336 8.50491 30.3666C7.50692 31.1996 6.7606 32.294 6.34956 33.5272C5.93852 34.7605 5.87902 36.0838 6.1777 37.349C6.47639 38.6142 7.12147 39.7712 8.04067 40.6904C8.95987 41.6096 10.1169 42.2546 11.382 42.5533C12.6472 42.852 13.9705 42.7925 15.2038 42.3815C16.437 41.9704 17.5315 41.2241 18.3645 40.2261C19.1974 39.2281 19.7361 38.0179 19.92 36.731" stroke="#DEE600" stroke-width="1.66667" stroke-linecap="round" stroke-linejoin="round"/>
</g>
<defs>
<clipPath id="clip0_125_1037">
<rect width="48" height="48" fill="white" transform="translate(0 0.730957)"/>
</clipPath>
</defs>
</svg>
