<svg width="48" height="48" viewBox="0 0 48 48" fill="none" xmlns="http://www.w3.org/2000/svg">
<path fill-rule="evenodd" clip-rule="evenodd" d="M5.32356 0H42.6766C45.4207 0 47.6452 2.22451 47.6452 4.96858V43.0314C47.6452 45.7755 45.4207 48 42.6766 48H5.32356C2.57949 48 0.35498 45.7755 0.35498 43.0314V4.96858C0.35498 2.22451 2.57949 0 5.32356 0ZM17.1009 8.25139L5.05738 39.7486H11.9883L14.3301 33.6839H23.2459V39.7486H42.9323V33.6839H30.1549V27.0812H41.1209V20.9188H30.1549V14.3161H42.9323V8.25139H17.1009ZM23.2459 27.0814L16.8555 27.0812L21.7346 14.3161H23.2459V27.0814Z" fill="#DBDBD7"/>
</svg>
